<svg width="155" height="36" viewBox="0 0 155 36" fill="none" xmlns="http://www.w3.org/2000/svg">
<rect y="1" width="35" height="35" rx="4" fill="#2B4C6E"/>
<path d="M17.237 31.9881L7.60181 28.8309C9.14511 27.9664 12.4319 24.6136 13.2328 18.1187C14.0336 11.6237 16.6114 9.32337 18.113 8.08301L27.8733 10.1127C26.1214 10.1127 22.9931 15.435 21.9921 21.3887C20.991 27.3424 18.9889 29.8457 17.237 31.9881Z" fill="white"/>
<line y1="-0.173913" x2="6.0814" y2="-0.173913" transform="matrix(0.974148 0.225487 -0.241831 0.970422 16.7246 12.3095)" stroke="#2B4C6E" stroke-width="0.347826"/>
<line y1="-0.173913" x2="6.0814" y2="-0.173913" transform="matrix(0.974148 0.225487 -0.241831 0.970422 16.1881 13.5)" stroke="#2B4C6E" stroke-width="0.347826"/>
<path d="M14.2915 21.0069L20.0846 22.3358" stroke="#2B4C6E" stroke-width="0.347826"/>
<path d="M12.9887 25.6492L15.9553 26.3733L18.9219 27.0974" stroke="#2B4C6E" stroke-width="0.347826"/>
<line y1="-0.173913" x2="2.5301" y2="-0.173913" transform="matrix(0.975878 0.217893 -0.233852 0.972373 15.6359 15.1724)" stroke="#2B4C6E" stroke-width="0.347826"/>
<line y1="-0.173913" x2="2.5301" y2="-0.173913" transform="matrix(0.975878 0.217893 -0.233852 0.972373 15.6359 15.1724)" stroke="#2B4C6E" stroke-width="0.347826"/>
<line y1="-0.173913" x2="2.5301" y2="-0.173913" transform="matrix(0.975878 0.217893 -0.233852 0.972373 19.0909 15.9923)" stroke="#2B4C6E" stroke-width="0.347826"/>
<line y1="-0.173913" x2="2.5301" y2="-0.173913" transform="matrix(0.975878 0.217893 -0.233852 0.972373 14.4918 19.7215)" stroke="#2B4C6E" stroke-width="0.347826"/>
<line y1="-0.173913" x2="2.5301" y2="-0.173913" transform="matrix(0.975878 0.217893 -0.233852 0.972373 17.9469 20.5415)" stroke="#2B4C6E" stroke-width="0.347826"/>
<path d="M13.8605 22.6319L16.3069 23.1083" stroke="#2B4C6E" stroke-width="0.347826"/>
<path d="M17.1473 23.4143L19.5911 23.9137" stroke="#2B4C6E" stroke-width="0.347826"/>
<path d="M13.4052 24.1056L14.6212 24.38L15.8371 24.6544" stroke="#2B4C6E" stroke-width="0.347826"/>
<path d="M16.7903 25.0173L19.2222 25.566" stroke="#2B4C6E" stroke-width="0.347826"/>
<line y1="-0.173913" x2="2.5301" y2="-0.173913" transform="matrix(0.975878 0.217893 -0.233852 0.972373 15.0441 18.0492)" stroke="#2B4C6E" stroke-width="0.347826"/>
<line y1="-0.173913" x2="2.5301" y2="-0.173913" transform="matrix(0.975878 0.217893 -0.233852 0.972373 18.4991 18.8691)" stroke="#2B4C6E" stroke-width="0.347826"/>
<line y1="-0.173913" x2="2.5301" y2="-0.173913" transform="matrix(0.975878 0.217893 -0.233852 0.972373 15.34 16.6108)" stroke="#2B4C6E" stroke-width="0.347826"/>
<line y1="-0.173913" x2="2.5301" y2="-0.173913" transform="matrix(0.975878 0.217893 -0.233852 0.972373 18.7951 17.4308)" stroke="#2B4C6E" stroke-width="0.347826"/>
<path d="M10.907 18.0435L14.1077 10.5282L11.3071 10.9308L21.0427 1L16.6417 9.99144L20.1092 9.58884L10.907 18.0435Z" fill="#FFC607" stroke="#2B4C6E" stroke-width="0.347826"/>
<path d="M61.728 19.432C62.624 19.592 63.384 20.064 64.008 20.848C64.632 21.632 64.944 22.52 64.944 23.512C64.944 24.36 64.72 25.128 64.272 25.816C63.84 26.488 63.208 27.024 62.376 27.424C61.544 27.808 60.576 28 59.472 28H52.8V11.32H59.16C60.296 11.32 61.272 11.512 62.088 11.896C62.904 12.28 63.52 12.8 63.936 13.456C64.352 14.096 64.56 14.816 64.56 15.616C64.56 16.576 64.304 17.376 63.792 18.016C63.28 18.656 62.592 19.128 61.728 19.432ZM55.536 18.328H58.92C59.816 18.328 60.512 18.128 61.008 17.728C61.52 17.312 61.776 16.72 61.776 15.952C61.776 15.2 61.52 14.616 61.008 14.2C60.512 13.768 59.816 13.552 58.92 13.552H55.536V18.328ZM59.232 25.768C60.16 25.768 60.888 25.544 61.416 25.096C61.944 24.648 62.208 24.024 62.208 23.224C62.208 22.408 61.928 21.76 61.368 21.28C60.808 20.8 60.064 20.56 59.136 20.56H55.536V25.768H59.232ZM69.3092 13.024C68.8132 13.024 68.3972 12.856 68.0612 12.52C67.7252 12.184 67.5572 11.768 67.5572 11.272C67.5572 10.776 67.7252 10.36 68.0612 10.024C68.3972 9.688 68.8132 9.52 69.3092 9.52C69.7892 9.52 70.1972 9.688 70.5332 10.024C70.8692 10.36 71.0372 10.776 71.0372 11.272C71.0372 11.768 70.8692 12.184 70.5332 12.52C70.1972 12.856 69.7892 13.024 69.3092 13.024ZM70.6532 14.776V28H67.9172V14.776H70.6532ZM76.9813 10.24V28H74.2453V10.24H76.9813ZM83.3094 10.24V28H80.5734V10.24H83.3094Z" fill="#292929"/>
<path d="M85.9896 19.624C85.9896 17.992 86.3656 16.528 87.1176 15.232C87.8856 13.936 88.9176 12.928 90.2136 12.208C91.5256 11.472 92.9576 11.104 94.5096 11.104C96.2856 11.104 97.8616 11.544 99.2376 12.424C100.63 13.288 101.638 14.52 102.262 16.12H98.9736C98.5416 15.24 97.9416 14.584 97.1736 14.152C96.4056 13.72 95.5176 13.504 94.5096 13.504C93.4056 13.504 92.4216 13.752 91.5576 14.248C90.6936 14.744 90.0136 15.456 89.5176 16.384C89.0376 17.312 88.7976 18.392 88.7976 19.624C88.7976 20.856 89.0376 21.936 89.5176 22.864C90.0136 23.792 90.6936 24.512 91.5576 25.024C92.4216 25.52 93.4056 25.768 94.5096 25.768C95.5176 25.768 96.4056 25.552 97.1736 25.12C97.9416 24.688 98.5416 24.032 98.9736 23.152H102.262C101.638 24.752 100.63 25.984 99.2376 26.848C97.8616 27.712 96.2856 28.144 94.5096 28.144C92.9416 28.144 91.5096 27.784 90.2136 27.064C88.9176 26.328 87.8856 25.312 87.1176 24.016C86.3656 22.72 85.9896 21.256 85.9896 19.624ZM108.2 16.696C108.6 16.024 109.128 15.504 109.784 15.136C110.456 14.752 111.248 14.56 112.16 14.56V17.392H111.464C110.392 17.392 109.576 17.664 109.016 18.208C108.472 18.752 108.2 19.696 108.2 21.04V28H105.464V14.776H108.2V16.696ZM113.763 21.328C113.763 20 114.035 18.824 114.579 17.8C115.139 16.776 115.891 15.984 116.835 15.424C117.795 14.848 118.851 14.56 120.003 14.56C121.043 14.56 121.947 14.768 122.715 15.184C123.499 15.584 124.123 16.088 124.587 16.696V14.776H127.347V28H124.587V26.032C124.123 26.656 123.491 27.176 122.691 27.592C121.891 28.008 120.979 28.216 119.955 28.216C118.819 28.216 117.779 27.928 116.835 27.352C115.891 26.76 115.139 25.944 114.579 24.904C114.035 23.848 113.763 22.656 113.763 21.328ZM124.587 21.376C124.587 20.464 124.395 19.672 124.011 19C123.643 18.328 123.155 17.816 122.547 17.464C121.939 17.112 121.283 16.936 120.579 16.936C119.875 16.936 119.219 17.112 118.611 17.464C118.003 17.8 117.507 18.304 117.123 18.976C116.755 19.632 116.571 20.416 116.571 21.328C116.571 22.24 116.755 23.04 117.123 23.728C117.507 24.416 118.003 24.944 118.611 25.312C119.235 25.664 119.891 25.84 120.579 25.84C121.283 25.84 121.939 25.664 122.547 25.312C123.155 24.96 123.643 24.448 124.011 23.776C124.395 23.088 124.587 22.288 124.587 21.376ZM136.485 17.008H134.037V28H131.277V17.008H129.717V14.776H131.277V13.84C131.277 12.32 131.677 11.216 132.477 10.528C133.293 9.824 134.565 9.472 136.293 9.472V11.752C135.461 11.752 134.877 11.912 134.541 12.232C134.205 12.536 134.037 13.072 134.037 13.84V14.776H136.485V17.008ZM142.101 17.008V24.328C142.101 24.824 142.213 25.184 142.437 25.408C142.677 25.616 143.077 25.72 143.637 25.72H145.317V28H143.157C141.925 28 140.981 27.712 140.325 27.136C139.669 26.56 139.341 25.624 139.341 24.328V17.008H137.781V14.776H139.341V11.488H142.101V14.776H145.317V17.008H142.101Z" fill="#2B4C6E"/>
</svg>
